<mxfile host="65bd71144e">
    <diagram id="GzoiqgmY34sPQDjCEOv0" name="PÃ¡gina-1">
        <mxGraphModel dx="662" dy="411" grid="1" gridSize="10" guides="1" tooltips="1" connect="1" arrows="1" fold="1" page="1" pageScale="1" pageWidth="827" pageHeight="1169" math="0" shadow="0">
            <root>
                <mxCell id="0"/>
                <mxCell id="1" parent="0"/>
                <mxCell id="4" value="" style="edgeStyle=none;html=1;" edge="1" parent="1" source="2" target="3">
                    <mxGeometry relative="1" as="geometry"/>
                </mxCell>
                <mxCell id="2" value="inicio" style="ellipse;whiteSpace=wrap;html=1;fillColor=#60a917;fontColor=#ffffff;strokeColor=#2D7600;" vertex="1" parent="1">
                    <mxGeometry x="390" y="10" width="120" height="80" as="geometry"/>
                </mxCell>
                <mxCell id="6" value="" style="edgeStyle=none;html=1;" edge="1" parent="1" source="3" target="5">
                    <mxGeometry relative="1" as="geometry"/>
                </mxCell>
                <mxCell id="3" value="x,y" style="shape=parallelogram;perimeter=parallelogramPerimeter;whiteSpace=wrap;html=1;fixedSize=1;fillColor=#a20025;fontColor=#ffffff;strokeColor=#6F0000;" vertex="1" parent="1">
                    <mxGeometry x="390" y="140" width="120" height="60" as="geometry"/>
                </mxCell>
                <mxCell id="5" value="x % y == 0" style="rhombus;whiteSpace=wrap;html=1;fillColor=#1ba1e2;fontColor=#ffffff;strokeColor=#006EAF;" vertex="1" parent="1">
                    <mxGeometry x="410" y="260" width="80" height="80" as="geometry"/>
                </mxCell>
                <mxCell id="7" value="es multiplo de x" style="shape=document;whiteSpace=wrap;html=1;boundedLbl=1;fillColor=#0050ef;fontColor=#ffffff;strokeColor=#001DBC;" vertex="1" parent="1">
                    <mxGeometry x="600" y="380" width="120" height="80" as="geometry"/>
                </mxCell>
                <mxCell id="8" value="no es multiplo de x" style="shape=document;whiteSpace=wrap;html=1;boundedLbl=1;fillColor=#0050ef;fontColor=#ffffff;strokeColor=#001DBC;" vertex="1" parent="1">
                    <mxGeometry x="230" y="380" width="120" height="80" as="geometry"/>
                </mxCell>
                <mxCell id="9" value="" style="endArrow=none;html=1;entryX=1;entryY=0.5;entryDx=0;entryDy=0;exitX=0.45;exitY=0;exitDx=0;exitDy=0;exitPerimeter=0;" edge="1" parent="1" source="7" target="5">
                    <mxGeometry width="50" height="50" relative="1" as="geometry">
                        <mxPoint x="510" y="420" as="sourcePoint"/>
                        <mxPoint x="560" y="370" as="targetPoint"/>
                        <Array as="points">
                            <mxPoint x="654" y="300"/>
                        </Array>
                    </mxGeometry>
                </mxCell>
                <mxCell id="10" value="" style="endArrow=none;html=1;entryX=0;entryY=0.5;entryDx=0;entryDy=0;exitX=0.5;exitY=0;exitDx=0;exitDy=0;" edge="1" parent="1" source="8" target="5">
                    <mxGeometry width="50" height="50" relative="1" as="geometry">
                        <mxPoint x="510" y="420" as="sourcePoint"/>
                        <mxPoint x="560" y="370" as="targetPoint"/>
                        <Array as="points">
                            <mxPoint x="290" y="300"/>
                        </Array>
                    </mxGeometry>
                </mxCell>
                <mxCell id="11" value="" style="endArrow=none;html=1;entryX=0.5;entryY=0.825;entryDx=0;entryDy=0;entryPerimeter=0;exitX=0.5;exitY=0;exitDx=0;exitDy=0;" edge="1" parent="1" target="8">
                    <mxGeometry width="50" height="50" relative="1" as="geometry">
                        <mxPoint x="450" y="630" as="sourcePoint"/>
                        <mxPoint x="490" y="530" as="targetPoint"/>
                        <Array as="points">
                            <mxPoint x="450" y="580"/>
                            <mxPoint x="290" y="580"/>
                        </Array>
                    </mxGeometry>
                </mxCell>
                <mxCell id="13" value="" style="endArrow=none;html=1;exitX=0.5;exitY=0;exitDx=0;exitDy=0;entryX=0.542;entryY=0.863;entryDx=0;entryDy=0;entryPerimeter=0;" edge="1" parent="1" target="7">
                    <mxGeometry width="50" height="50" relative="1" as="geometry">
                        <mxPoint x="450" y="630" as="sourcePoint"/>
                        <mxPoint x="510" y="520" as="targetPoint"/>
                        <Array as="points">
                            <mxPoint x="450" y="580"/>
                            <mxPoint x="665" y="580"/>
                        </Array>
                    </mxGeometry>
                </mxCell>
                <mxCell id="14" value="fin" style="ellipse;whiteSpace=wrap;html=1;fillColor=#60a917;fontColor=#ffffff;strokeColor=#2D7600;" vertex="1" parent="1">
                    <mxGeometry x="390" y="630" width="120" height="80" as="geometry"/>
                </mxCell>
            </root>
        </mxGraphModel>
    </diagram>
</mxfile>
